<svg width="19" height="19" viewBox="0 0 19 19" fill="none" xmlns="http://www.w3.org/2000/svg">
<path d="M9.92882 5.21022C7.37432 5.21022 5.31385 7.27069 5.31385 9.8252C5.31385 12.3797 7.37432 14.4402 9.92882 14.4402C12.4833 14.4402 14.5438 12.3797 14.5438 9.8252C14.5438 7.27069 12.4833 5.21022 9.92882 5.21022ZM9.92882 12.8255C8.27803 12.8255 6.92849 11.48 6.92849 9.8252C6.92849 8.17039 8.27402 6.82486 9.92882 6.82486C11.5836 6.82486 12.9292 8.17039 12.9292 9.8252C12.9292 11.48 11.5796 12.8255 9.92882 12.8255ZM15.809 5.02145C15.809 5.61991 15.327 6.09787 14.7326 6.09787C14.1341 6.09787 13.6561 5.61589 13.6561 5.02145C13.6561 4.427 14.1381 3.94502 14.7326 3.94502C15.327 3.94502 15.809 4.427 15.809 5.02145ZM18.8656 6.11394C18.7973 4.67201 18.4679 3.39476 17.4116 2.34243C16.3593 1.29011 15.082 0.960753 13.6401 0.888455C12.154 0.804109 7.69966 0.804109 6.21355 0.888455C4.77564 0.956736 3.49838 1.28609 2.44204 2.33842C1.3857 3.39074 1.06036 4.66799 0.988065 6.10992C0.903718 7.59603 0.903718 12.0503 0.988065 13.5365C1.05635 14.9784 1.3857 16.2556 2.44204 17.308C3.49838 18.3603 4.77162 18.6896 6.21355 18.7619C7.69966 18.8463 12.154 18.8463 13.6401 18.7619C15.082 18.6937 16.3593 18.3643 17.4116 17.308C18.4639 16.2556 18.7933 14.9784 18.8656 13.5365C18.9499 12.0503 18.9499 7.60005 18.8656 6.11394ZM16.9457 15.131C16.6324 15.9182 16.0259 16.5247 15.2346 16.842C14.0498 17.312 11.2382 17.2035 9.92882 17.2035C8.61944 17.2035 5.80386 17.308 4.62301 16.842C3.83577 16.5288 3.22928 15.9223 2.91197 15.131C2.44204 13.9461 2.55049 11.1346 2.55049 9.8252C2.55049 8.51581 2.44606 5.70024 2.91197 4.51938C3.22526 3.73215 3.83176 3.12565 4.62301 2.80835C5.80788 2.33842 8.61944 2.44686 9.92882 2.44686C11.2382 2.44686 14.0538 2.34243 15.2346 2.80835C16.0219 3.12164 16.6284 3.72813 16.9457 4.51938C17.4156 5.70425 17.3072 8.51581 17.3072 9.8252C17.3072 11.1346 17.4156 13.9502 16.9457 15.131Z" fill="#000"/>
</svg>
