<svg width="16" height="16" viewBox="0 0 16 16" fill="none" xmlns="http://www.w3.org/2000/svg">
<path d="M3.52547 15.7496H0.260156V5.23441H3.52547V15.7496ZM1.89105 3.80004C0.846914 3.80004 0 2.9352 0 1.89105C7.47351e-09 1.38952 0.199236 0.908519 0.553877 0.553877C0.908519 0.199236 1.38952 0 1.89105 0C2.39259 0 2.87359 0.199236 3.22823 0.553877C3.58287 0.908519 3.78211 1.38952 3.78211 1.89105C3.78211 2.9352 2.93484 3.80004 1.89105 3.80004ZM15.7465 15.7496H12.4882V10.6309C12.4882 9.41098 12.4636 7.84652 10.7905 7.84652C9.09281 7.84652 8.83266 9.17191 8.83266 10.543V15.7496H5.57086V5.23441H8.70258V6.66879H8.74828C9.18422 5.84262 10.2491 4.97074 11.8378 4.97074C15.1425 4.97074 15.75 7.14691 15.75 9.97348V15.7496H15.7465Z" fill="#000"/>
</svg>
