<svg id="Capa_1" enable-background="new 0 0 512.005 512.005" height="512" viewBox="0 0 512.005 512.005" width="512" xmlns="http://www.w3.org/2000/svg"><g><g><g><g fill="#ffcebf"><path d="m140.976 408.793-126.119-163.764c-11.884-15.431-9.093-37.682 6.234-49.699 15.327-12.018 37.385-9.251 49.268 6.18l87.704 113.882z"/><path d="m158.063 315.392-126.119-163.764c-11.884-15.431-9.093-37.682 6.234-49.699 15.327-12.018 37.385-9.251 49.268 6.18l126.119 163.763z"/><path d="m269.068 228.353-100.509-130.509c-11.884-15.431-9.093-37.682 6.234-49.699 15.327-12.018 37.385-9.251 49.268 6.18l131.782 171.115z"/><path d="m187.955 238.618-126.119-163.764c-11.884-15.431-9.093-37.682 6.234-49.699 15.327-12.018 37.385-9.251 49.268 6.18l126.119 163.763z"/><path d="m115.24 375.376 55.726 72.36c49.401 64.146 141.097 75.648 204.811 25.691 32.568-25.536 52.945-63.743 56.101-105.187l15.282-200.679c2.353-30.894-20.938-57.645-51.612-59.278-7.444-.396-14.072 4.746-15.605 12.106l-19.293 92.609c-1.978 9.495-7.236 17.979-14.836 23.938-38.214 29.963-60.524 76.076-60.401 124.84l.009 3.403 70.421-139.737-112.385-50.611-91.922 82.981z"/></g><path d="m70.359 201.51c-11.884-15.431-33.942-18.198-49.269-6.18-9.181 7.199-13.858 18.069-13.583 28.946 15.242-10.782 36.329-7.727 47.852 7.234l67.238 87.308c9.466 12.291 28.527 10.45 35.465-3.426z" fill="#ffb09e"/><path d="m72.446 138.109 98.941 128.473c10.147 13.176 29.091 15.553 42.179 5.291l-126.12-163.764c-11.884-15.431-33.942-18.198-49.268-6.18-9.181 7.199-13.858 18.069-13.583 28.946 15.242-10.783 36.329-7.728 47.851 7.234z" fill="#ffb09e"/><path d="m102.339 61.335 122.91 158.614c10.409 13.432 29.18 17.032 43.819 8.404l-151.729-197.018c-11.884-15.431-33.942-18.198-49.269-6.18-9.181 7.199-13.858 18.069-13.583 28.946 15.242-10.783 36.329-7.728 47.852 7.234z" fill="#ffb09e"/><path d="m194.062 69.325 108.279 140.599c8.159 10.594 20.922 16.61 34.286 16.162l19.216-.645-131.781-171.116c-11.884-15.431-33.942-18.198-49.269-6.18-2.815 2.207-5.203 4.762-7.159 7.553 10.019.365 19.804 5.026 26.428 13.627z" fill="#ffb09e"/><g><path d="m395.55 108.281c-4.364-.232-8.438 1.448-11.379 4.353 20.899 9.011 34.836 30.69 32.99 54.925l-15.283 200.679c-3.156 41.445-23.533 79.651-56.101 105.187-22.449 17.602-48.373 27.564-74.696 30.292 36.129 3.754 73.72-6.003 104.696-30.292 32.568-25.536 52.945-63.743 56.101-105.187l15.283-200.679c2.353-30.894-20.938-57.644-51.611-59.278z" fill="#ffb09e"/></g></g></g><path d="m121.292 482.059c-27.608-3.463-52.233-17.603-69.34-39.816-17.122-22.232-24.625-49.837-21.126-77.728.515-4.11-2.398-7.86-6.508-8.375-4.114-.514-7.86 2.398-8.375 6.508-3.994 31.842 4.574 63.36 24.125 88.748 19.567 25.407 47.75 41.583 79.357 45.548 4.029.505 7.857-2.369 8.375-6.508.515-4.111-2.398-7.861-6.508-8.377zm314.032-159.063c-4.121-.311-7.733 2.779-8.048 6.909l-2.876 37.764c-2.99 39.269-22.399 75.665-53.251 99.855-29.228 22.918-65.53 33.005-102.211 28.404-36.684-4.602-69.367-23.342-92.03-52.769l-103.37-134.225c-2.528-3.282-7.237-3.894-10.518-1.366-3.282 2.527-3.893 7.236-1.366 10.518l103.371 134.225c25.122 32.621 61.363 53.396 102.047 58.5 40.304 5.055 80.895-6.048 113.334-31.483 34.155-26.781 55.643-67.064 58.952-110.52l2.876-37.764c.314-4.13-2.78-7.734-6.91-8.048zm-309.584 123.602c-37.731-4.732-64.54-39.577-59.761-77.674.515-4.11-2.398-7.86-6.508-8.375-4.112-.512-7.859 2.399-8.375 6.508-5.808 46.304 26.84 88.663 72.778 94.425 4.029.505 7.857-2.369 8.375-6.508.514-4.11-2.399-7.86-6.509-8.376zm281.816-446.539c-4.118-.517-7.859 2.398-8.375 6.508s2.398 7.86 6.508 8.375c57.115 7.164 97.698 59.895 90.467 117.544-.516 4.11 2.398 7.86 6.508 8.375 4.029.506 7.856-2.368 8.375-6.508 8.26-65.855-38.162-126.1-103.483-134.294zm-11.608 100.733c-11.214-.593-21.04 7.001-23.346 18.066l-19.03 91.341-123.568-160.451c-14.241-18.669-41.514-21.875-59.839-7.506-8.313 6.518-13.567 15.549-15.548 25.207l-31.337-40.691c-14.239-18.668-41.512-21.875-59.838-7.505-18.528 14.528-21.914 41.523-7.548 60.177l5.837 7.58c-10.161-.488-20.061 2.649-28.181 9.017-18.528 14.528-21.915 41.523-7.548 60.178l18.643 24.208c-10.162-.487-20.062 2.649-28.182 9.016-18.528 14.528-21.914 41.524-7.548 60.178l31.338 40.691c2.526 3.282 7.237 3.895 10.518 1.366 3.282-2.527 3.893-7.236 1.366-10.518l-31.338-40.691c-9.363-12.158-7.156-29.752 4.92-39.222 11.846-9.289 29.505-7.207 38.698 4.854l87.704 113.881c2.542 3.302 7.26 3.875 10.518 1.366 3.282-2.527 3.893-7.236 1.366-10.518l-126.119-163.764c-9.363-12.158-7.156-29.753 4.92-39.222 11.844-9.287 29.502-7.207 38.697 4.852l126.121 163.766c2.527 3.282 7.237 3.895 10.518 1.366 3.282-2.527 3.893-7.236 1.366-10.518l-25.609-33.252c0-.001-.001-.002-.002-.003l-100.509-130.509c-.001-.001-.001-.002-.002-.003l-25.608-33.251c-9.363-12.158-7.156-29.753 4.92-39.222 11.844-9.287 29.505-7.207 38.699 4.854l126.119 163.764c0 .001.001.001.001.002l25.609 33.253c2.543 3.302 7.26 3.874 10.519 1.366 3.282-2.527 3.894-7.236 1.366-10.518l-100.51-130.51c-9.363-12.158-7.155-29.752 4.921-39.221 11.842-9.285 29.505-7.208 38.698 4.854l128.458 166.8c-1.582 1.965-3.385 3.759-5.391 5.331-19.644 15.403-35.793 35.46-46.7 58.005-10.905 22.54-16.637 47.698-16.573 72.756l.009 3.403c.011 4.135 3.366 7.48 7.5 7.48h.02c4.142-.011 7.491-3.377 7.48-7.52l-.009-3.402c-.058-22.795 5.155-45.682 15.075-66.185 9.918-20.499 24.599-38.734 42.454-52.734 8.984-7.045 15.217-17.139 17.551-28.31l19.294-92.609c.783-3.762 4.069-6.35 7.864-6.146 12.71.677 24.356 6.339 32.793 15.943 8.56 9.744 12.729 22.272 11.738 35.276l-9.737 127.858c-.314 4.13 2.779 7.733 6.909 8.048 4.11.307 7.733-2.779 8.048-6.909l9.737-127.858c1.299-17.063-4.179-33.512-15.426-46.314-11.124-12.662-26.489-20.128-43.266-21.021zm7.16-65.272c-4.118-.517-7.859 2.398-8.375 6.508s2.398 7.86 6.508 8.375c37.731 4.733 64.54 39.578 59.762 77.674-.516 4.11 2.398 7.86 6.508 8.375 4.029.506 7.856-2.368 8.375-6.508 5.808-46.303-26.841-88.662-72.778-94.424z"/></g></svg>